<svg width="58" height="60" viewBox="0 0 58 60" fill="none" xmlns="http://www.w3.org/2000/svg">
<path d="M18.5768 11.7705C18.5768 11.7705 10.9416 11.8259 10.2399 11.9083C8.89093 12.0627 5.89481 12.7235 4.66146 15.1959C2.98161 18.5645 6.1442 23.3368 6.1442 23.3368L10.1204 29.6939" stroke="#BFECFF" stroke-width="1.5" stroke-linecap="round"/>
<path d="M14.1693 48.1258C15.1597 47.5068 15.4607 46.2021 14.8417 45.2117C14.2227 44.2213 12.9181 43.9203 11.9277 44.5393L10.7319 45.2866C9.74153 45.9056 9.44045 47.2103 10.0595 48.2007C10.6785 49.1911 11.9831 49.4921 12.9735 48.8731L14.1693 48.1258Z" fill="white"/>
<path d="M23.0355 31.5013C24.0259 30.8823 24.327 29.5776 23.708 28.5872C23.089 27.5968 21.7843 27.2957 20.7939 27.9147L9.23594 35.1385C8.24554 35.7575 7.94446 37.0621 8.56346 38.0525C9.18246 39.0429 10.4871 39.344 11.4775 38.725L23.0355 31.5013Z" fill="white"/>
<path d="M27.1848 39.9925C28.1752 39.3735 28.4762 38.0688 27.8572 37.0784C27.2382 36.088 25.9336 35.787 24.9432 36.406L18.3388 40.5337C17.3484 41.1527 17.0474 42.4573 17.6664 43.4477C18.2854 44.4381 19.59 44.7392 20.5804 44.1202L27.1848 39.9925Z" fill="white"/>
<path d="M51.5314 29.2126C52.3018 28.7312 52.5359 27.7164 52.0545 26.9461C51.573 26.1757 50.5583 25.9416 49.7879 26.423C49.0176 26.9045 48.7834 27.9193 49.2649 28.6896C49.7463 29.4599 50.7611 29.6941 51.5314 29.2126Z" fill="white"/>
<path fill-rule="evenodd" clip-rule="evenodd" d="M41.9666 35.3739C40.7938 37.7473 39.45 40.4728 38.2447 42.9173C36.5557 46.3427 35.1388 49.2163 34.8459 49.7962C33.7269 52.0202 32.6378 52.7705 31.3237 52.6408C30.3057 52.549 28.9627 51.2691 28.8735 48.7205C28.7843 46.172 28.4782 39.1917 23.1151 42.5427C23.023 42.3954 22.9781 42.1675 22.9294 41.921C22.8721 41.6307 22.8097 41.3146 22.6594 41.0741C21.4084 39.0725 16.2614 30.7534 16.6349 30.52C17.0083 30.2866 18.7334 28.6863 17.6507 26.8472C16.7188 25.2642 15.1937 24.359 13.5441 23.38C13.2773 23.2216 13.0073 23.0614 12.736 22.896C10.2321 21.2896 9.65166 20.0467 10.2374 18.3828C10.9803 16.815 13.4293 16.8195 14.4321 16.8522C15.4142 16.8849 22.9114 16.9237 30.4218 16.9357L25.5288 30.3564C25.273 31.1441 25.3001 31.9963 25.6055 32.7661C26.1535 33.4388 26.9383 33.8762 27.7987 33.9882L41.9638 35.3712C41.9647 35.3721 41.9657 35.373 41.9666 35.3739ZM36.0917 16.939C35.8747 16.9822 35.6642 17.0595 35.4685 17.1693C35.0455 17.4067 34.7166 17.7819 34.5367 18.2324C32.8144 22.162 32.3331 23.4135 31.6482 25.1942C31.4938 25.5956 31.3291 26.0238 31.1375 26.5156C31.1105 26.5945 31.077 26.688 31.0395 26.7928C30.745 27.6156 30.2013 29.1343 30.5782 29.7372C30.902 30.2553 31.6287 30.3293 33.0109 30.47C33.2103 30.4903 33.4233 30.512 33.6506 30.5366C37.4293 30.9412 42.7686 31.4034 42.7686 31.4034C43.2433 31.3579 43.6941 31.1739 44.0651 30.8742C44.152 30.804 44.2337 30.7282 44.3096 30.6474C44.4488 30.3683 44.5712 30.1239 44.6742 29.9192L48.2556 22.7904C48.2676 22.7666 48.2801 22.7418 48.293 22.7161C49.0236 21.266 51.2618 16.8233 44.5763 16.9035C42.6627 16.9265 39.577 16.937 36.0917 16.939Z" fill="white"/>
<path d="M54.3587 22.0873C54.3587 22.0873 56.821 18.2299 54.8562 15.0192C52.8915 11.8085 47.2925 11.7602 47.2925 11.7602L26.4745 11.8719" stroke="#FE60B7" stroke-width="1.5" stroke-linecap="round"/>
<path d="M21.7822 48.6759C21.7822 48.6759 25.8898 55.2887 26.0928 55.5737C26.6558 56.3685 29.0255 59.3337 32.1998 59.0302C35.9468 58.6713 38.3202 53.4614 38.3202 53.4614L48.1784 33.7244" stroke="#A072FD" stroke-width="1.5" stroke-linecap="round"/>
</svg>
